<svg xmlns="http://www.w3.org/2000/svg" viewBox="0 0 235.805 61.445"><defs><style>.a{fill:#fbfae2;}</style></defs><path class="a" d="M23.82,14.183h0L18.144.009h-4.21L8.414,14.183,4.834,22.17a16.455,16.455,0,0,1-2.376,4.189A4.128,4.128,0,0,1,0,27.6v.758H9.237V27.6a7.906,7.906,0,0,1-2.724-.492,1.854,1.854,0,0,1-.942-1.72,6.011,6.011,0,0,1,.574-2.233l1.167-2.7h7.961v1.467h5.52l2.475,6.439H29.5Zm-8.547,2.958v1.793H8.029l2.116-4.751h4l1.84-5.055,1.876,5.055h0l1.1,2.958Z"/><path class="a" d="M99.829,14.183h0L94.153.009h-4.21l-5.52,14.174-3.58,7.987a16.455,16.455,0,0,1-2.376,4.189A4.128,4.128,0,0,1,76.009,27.6v.758h9.237V27.6a7.906,7.906,0,0,1-2.724-.492,1.854,1.854,0,0,1-.942-1.72,6.011,6.011,0,0,1,.574-2.233l1.167-2.7h7.961v1.467H96.8l2.475,6.439H105.5Zm-8.547,2.958v1.793H84.038l2.116-4.751h4l1.84-5.055,1.876,5.055h0l1.1,2.958Z"/><path class="a" d="M75.068,27.582a3.756,3.756,0,0,1-1.892-.407,2.16,2.16,0,0,1-.94-.951A8.907,8.907,0,0,1,72,23.506V.044H66.272V14.218h0v9.288a8.618,8.618,0,0,1-.23,2.634,1.9,1.9,0,0,1-.836,1,3.918,3.918,0,0,1-1.986.439h-.941v.774h13.73v-.774Z"/><path class="a" d="M57.6,22.813a32.128,32.128,0,0,0-3.26-4.6,13.392,13.392,0,0,0-3.06-2.38,10.185,10.185,0,0,0,4.53-1.66,6.594,6.594,0,0,0,1.07-.96,7.576,7.576,0,0,0,1.88-5.27,8.17,8.17,0,0,0-1.24-4.47A6.493,6.493,0,0,0,54.226.763,19.137,19.137,0,0,0,48.315,0v.01h-17.6v.77a6.888,6.888,0,0,1,2.66.35,2.1,2.1,0,0,1,.99.96,8.682,8.682,0,0,1,.28,2.89v18.4a8.607,8.607,0,0,1-.28,2.88,2.151,2.151,0,0,1-.98.95,6.416,6.416,0,0,1-2.67.37v.77H45.226v-.77a6.564,6.564,0,0,1-2.651-.36,2.019,2.019,0,0,1-1-.95,8.692,8.692,0,0,1-.279-2.89v-6.87h1.159a9.142,9.142,0,0,1,2.88.32,4.26,4.26,0,0,1,1.72,1.18,16.59,16.59,0,0,1,1.26,1.6c.481.68,1.07,1.53,1.76,2.56l4.14,6.17h6.84Zm-9.28-10.88v2.24H41.3V1.533l7.019-.01v3.29c.82.02,1.37.04,1.62.08A3.471,3.471,0,0,1,52.1,6a3.365,3.365,0,0,1,.761,2.31,3.677,3.677,0,0,1-.581,2.13,3.065,3.065,0,0,1-1.6,1.19A10.293,10.293,0,0,1,48.315,11.933Z"/><path class="a" d="M132.962,18.405H132.1a20.346,20.346,0,0,1-2.08,5.059,7.025,7.025,0,0,1-2.6,2.509,8.01,8.01,0,0,1-3.763.794h-3.407a9.978,9.978,0,0,1-2.53-.188,1.667,1.667,0,0,1-.982-.888,9.167,9.167,0,0,1-.251-2.77V.009h-5.77v23.5a8.584,8.584,0,0,1-.23,2.634,1.9,1.9,0,0,1-.836,1,3.912,3.912,0,0,1-1.986.439h-.94v.774h4.033l5.729.035v-.035H131.9Z"/><path class="a" d="M195.422,4.8V0H169.646V.773h.941a3.594,3.594,0,0,1,2.174.586,2.006,2.006,0,0,1,.774,1.129,14.97,14.97,0,0,1,.1,2.362V23.5a8.627,8.627,0,0,1-.23,2.634,1.9,1.9,0,0,1-.836,1,3.918,3.918,0,0,1-1.986.439h-.941v.774h25.776V23.571H184.641v3.208h-1.49c-.224,0-.427-.011-.617-.028a2.679,2.679,0,0,1-1.139-.307,1.712,1.712,0,0,1-.742-.857,11.477,11.477,0,0,1-.2-2.864V16.378h13.363V11.6H180.454V1.631h2.927c.453,0,.868.006,1.26.018V4.8Z"/><path class="a" d="M168.419,0h-9.152V.756A3.956,3.956,0,0,1,162.558,1.9a3.106,3.106,0,0,1,.544,1.334V16.972L149.6,0h-9.83V.756a4.683,4.683,0,0,1,1.942.389A5.386,5.386,0,0,1,143.265,2.6l.593.735V22.89a4.4,4.4,0,0,1-.9,3.127,4.45,4.45,0,0,1-3.188.94v.756h9.83v-.756h-.654a4,4,0,0,1-2.5-.838q-1.094-.839-1.094-3.229V5.273L163.1,27.129l.988,1.218h4.328V.757h0V0Z"/><path class="a" d="M228.611,0V.756a3.709,3.709,0,0,1,2.187.522A1.626,1.626,0,0,1,231.37,2.6a5.309,5.309,0,0,1-.163,1.246,24.428,24.428,0,0,1-.879,2.514L225.812,18.23,220.764,5.11a14.03,14.03,0,0,1-.92-2.882,1.276,1.276,0,0,1,.245-.767,1.335,1.335,0,0,1,.675-.48,7.43,7.43,0,0,1,2.023-.225V0H211.959l-5.182,19.471L202.5,0h-5.858l6.767,28.347h6.207L215,8.087l7.789,20.26h.8l8.686-22.87q1.164-2.922,1.287-3.167a3.152,3.152,0,0,1,.94-1.124,2.616,2.616,0,0,1,1.308-.43V0Z"/><path class="a" d="M158.943,47.268h0L153.268,33.1h-4.21l-5.52,14.173-3.58,7.988a16.474,16.474,0,0,1-2.376,4.188,4.135,4.135,0,0,1-2.458,1.24v.757h9.237v-.757a7.931,7.931,0,0,1-2.724-.492,1.855,1.855,0,0,1-.942-1.72,6.017,6.017,0,0,1,.573-2.233l1.168-2.7H150.4V55h5.52l2.475,6.439h6.226ZM150.4,50.226V52.02h-7.244l2.116-4.752h4l1.84-5.054,1.876,5.054h0l1.1,2.958Z"/><path class="a" d="M194.491,33.1h-9.152v.756A3.952,3.952,0,0,1,188.629,35a3.094,3.094,0,0,1,.544,1.334V50.067L175.672,33.1h-9.83v.756a4.683,4.683,0,0,1,1.941.388,5.4,5.4,0,0,1,1.553,1.451l.593.736V55.985a4.4,4.4,0,0,1-.9,3.127,4.453,4.453,0,0,1-3.188.94v.756h9.83v-.756h-.654a4.01,4.01,0,0,1-2.5-.838q-1.094-.838-1.093-3.229V38.368l17.752,21.856.989,1.217h4.328V33.852h0V33.1Z"/><path class="a" d="M101.887,47.306l0-.038q-.011-6.666-3.635-10.415a12.763,12.763,0,0,0-9.35-3.744V33.1h-.23c-.027,0-.051,0-.078,0v0H87.373v.011c-.062,0-.12,0-.182,0a13.184,13.184,0,0,0-10.186,3.819,13.627,13.627,0,0,0-4.141,10.146c0,.066.006.128.007.193h0a14.432,14.432,0,0,0,3.177,9.176q4.008,4.969,11.325,4.994h1.223v0h.038c.029,0,.057,0,.087,0H88.9v-.007a12.685,12.685,0,0,0,9.382-3.739Q101.887,53.944,101.887,47.306Zm-7.844,7.021a6.948,6.948,0,0,1-5.432,2.384h-.019v3.219H87.369a5.6,5.6,0,0,1-4.776-2.336q-2.456-3.342-2.458-10.323h0v-.013q0-5.884,1.592-9.028,1.939-3.8,5.643-3.825h1.219v3.422h.019A6.991,6.991,0,0,1,94.1,40.144q2.066,2.319,2.066,7.031c0,.032,0,.061,0,.093Q96.141,51.965,94.043,54.327Z"/><path class="a" d="M68.181,55.9a32.348,32.348,0,0,0-3.25-4.6,13.483,13.483,0,0,0-3.07-2.38,10.093,10.093,0,0,0,4.53-1.66,7.12,7.12,0,0,0,1.08-.96,7.57,7.57,0,0,0,1.87-5.27,8.248,8.248,0,0,0-1.23-4.47,6.554,6.554,0,0,0-3.3-2.71,19.082,19.082,0,0,0-5.91-.76v.01H41.311v.77a6.828,6.828,0,0,1,2.65.35,2.013,2.013,0,0,1,.99.96,8.582,8.582,0,0,1,.29,2.89v18.4a8.508,8.508,0,0,1-.29,2.88,2.058,2.058,0,0,1-.98.95,6.364,6.364,0,0,1-2.66.37v.77h14.5v-.77a6.591,6.591,0,0,1-2.65-.36,2,2,0,0,1-.99-.95,8.582,8.582,0,0,1-.29-2.89V49.6h1.16a9.261,9.261,0,0,1,2.89.32,4.4,4.4,0,0,1,1.72,1.18,18.781,18.781,0,0,1,1.25,1.6c.49.68,1.07,1.53,1.76,2.56l4.14,6.17h6.84ZM58.9,45.019v2.24h-7.02V34.619l7.02-.01V37.9c.82.02,1.37.04,1.63.08a3.444,3.444,0,0,1,2.15,1.11,3.374,3.374,0,0,1,.77,2.31,3.761,3.761,0,0,1-.58,2.13,3.094,3.094,0,0,1-1.61,1.19A10.3,10.3,0,0,1,58.9,45.019Z"/><path class="a" d="M125.312,33.1l-3.728,14.174h0l-.326,1.241-.53-1.241h0L114.688,33.1H103.107v.774h.9a3.823,3.823,0,0,1,1.9.407,2.1,2.1,0,0,1,.941.941,9.093,9.093,0,0,1,.23,2.686V55.843q0,1.9-.042,2.132a3.986,3.986,0,0,1-.648,1.526,2.831,2.831,0,0,1-1.233.867,4.44,4.44,0,0,1-1.756.3h-.293v.774h9.7v-.774a4.917,4.917,0,0,1-2.854-.658,2.98,2.98,0,0,1-1.181-1.7,17.757,17.757,0,0,1-.1-2.571V35.774l4.943,11.5,6.094,14.173h3.248l3.574-14.173h0l2.052-8.141v8.141h0V61.445H133.9V33.1Z"/></svg>