<svg width="1200" height="742" viewBox="0 0 1200 742" fill="none" xmlns="http://www.w3.org/2000/svg">
<g clip-path="url(#clip0_7_316)">
<path d="M261.012 111.213L216.555 0.0470581H183.575L140.333 111.213L112.281 173.866C107.716 185.67 101.448 196.74 93.6756 206.723C88.559 212.082 81.7636 215.525 74.4203 216.48V222.425H146.78V216.48C139.496 216.46 132.272 215.154 125.441 212.621C123.075 211.287 121.13 209.316 119.826 206.932C118.521 204.547 117.91 201.844 118.062 199.13C118.418 193.057 119.942 187.11 122.551 181.616L131.7 160.438H194.065V171.945H237.307L256.695 222.457H305.468L261.012 111.213ZM194.065 134.414V148.485H137.317L153.893 111.213H185.228L199.603 71.5717L214.307 111.213L222.924 134.414H194.065Z" fill="black"/>
<path d="M856.445 111.213L811.988 0.0470581H779.008L735.766 111.213L707.714 173.866C703.15 185.672 696.879 196.742 689.101 206.723C683.988 212.084 677.195 215.527 669.853 216.48V222.425H742.213V216.48C734.929 216.46 727.705 215.154 720.874 212.621C718.508 211.287 716.563 209.316 715.258 206.932C713.954 204.547 713.343 201.844 713.495 199.13C713.851 193.057 715.375 187.11 717.984 181.616L727.133 160.438H789.498V171.945H832.74L852.128 222.457H900.877L856.445 111.213ZM789.498 134.414V148.485H732.75L749.326 111.213H780.661L795.067 71.5717L809.771 111.213L818.388 134.414H789.498Z" fill="black"/>
<path d="M662.482 216.315C657.347 216.565 652.236 215.461 647.66 213.115C644.474 211.475 641.893 208.863 640.289 205.656C638.588 198.681 637.967 191.485 638.448 184.322V0.321594H593.569V111.487V184.322C594.032 191.26 593.424 198.228 591.767 204.981C590.574 208.288 588.251 211.067 585.21 212.825C580.418 215.326 575.051 216.514 569.652 216.268H562.289V222.339H669.845V216.268L662.482 216.315Z" fill="black"/>
<path d="M525.642 178.91C518.199 166.159 509.654 154.086 500.104 142.83C493.059 135.478 484.984 129.19 476.133 124.162C488.833 122.73 501.003 118.265 511.62 111.142C514.68 108.945 517.49 106.421 520.002 103.612C529.999 92.2202 535.268 77.4323 534.73 62.2772C534.943 49.8962 531.569 37.7184 525.016 27.2168C519.049 17.422 509.954 9.93198 499.204 5.96103C484.177 1.56485 468.555 -0.44656 452.906 -1.38693e-05V0.0784209H315.033V6.11789C322.091 5.6566 329.172 6.58937 335.871 8.86311C339.229 10.4274 341.961 13.0804 343.626 16.3928C345.623 23.7719 346.364 31.4349 345.819 39.0605V183.38C346.367 190.98 345.625 198.618 343.626 205.97C341.943 209.222 339.248 211.837 335.949 213.421C329.261 215.86 322.131 216.849 315.033 216.323V222.362H428.7V216.323C421.66 216.819 414.593 215.858 407.941 213.499C404.537 212.013 401.764 209.376 400.107 206.048C398.11 198.669 397.369 191.006 397.914 183.38V129.496H407.001C414.607 129.127 422.222 129.974 429.562 132.006C434.75 133.925 439.38 137.106 443.036 141.261C446.58 145.238 449.876 149.429 452.906 153.81C456.666 159.144 461.288 165.811 466.694 173.89L499.125 222.284H552.708L525.642 178.91ZM452.945 93.5726V111.142H397.953V12.0005L452.945 11.9221V37.7271C459.369 37.884 463.678 38.0408 465.636 38.3546C472.139 39.1219 478.148 42.2134 482.557 47.0608C486.725 52.1475 488.848 58.6083 488.511 65.1792C488.737 71.0822 487.152 76.9129 483.967 81.8858C480.943 86.3072 476.532 89.5919 471.433 91.2196C465.369 92.7192 459.152 93.5089 452.906 93.5726H452.945Z" fill="black"/>
<path d="M1116 144.32H1109.25C1105.64 158.222 1100.15 171.57 1092.96 184C1088.01 192.228 1080.98 199.011 1072.59 203.671C1063.42 208.119 1053.3 210.26 1043.11 209.907H1016.42C1009.78 210.262 1003.12 209.767 996.605 208.432C994.915 207.859 993.36 206.944 992.037 205.745C990.714 204.546 989.65 203.087 988.913 201.46C987.152 194.361 986.489 187.033 986.946 179.733V0.0470581H941.746V184.322C942.209 191.26 941.601 198.228 939.944 204.981C938.753 208.287 936.434 211.065 933.395 212.825C928.602 215.324 923.236 216.512 917.837 216.268H910.466V222.339H942.059L986.946 222.606V222.339H1107.69L1116 144.32Z" fill="black"/>
<path d="M659.803 297.024V259.376H457.889V265.439H465.252C471.277 265.103 477.25 266.714 482.291 270.035C485.285 272.18 487.428 275.313 488.346 278.882C489.113 285.029 489.388 291.226 489.169 297.417V443.713C489.632 450.651 489.024 457.62 487.367 464.373C486.169 467.677 483.848 470.454 480.81 472.216C476.018 474.717 470.651 475.905 465.252 475.66H457.889V481.723H659.803V444.286H575.355V469.455H563.675C561.92 469.455 560.33 469.369 558.842 469.236C555.726 469.107 552.678 468.284 549.919 466.828C547.279 465.309 545.23 462.939 544.106 460.106C542.651 452.713 542.125 445.166 542.54 437.642V387.875H647.23V350.415H542.548V272.168H565.477C569.025 272.168 572.284 272.223 575.355 272.31V296.993L659.803 297.024Z" fill="black"/>
<path d="M448.277 259.415H376.582V265.345C381.278 264.771 386.043 265.282 390.51 266.838C394.978 268.395 399.03 270.957 402.355 274.326C404.578 277.429 406.038 281.014 406.617 284.789V392.534L300.862 259.415H223.856V265.345C229.083 265.263 234.268 266.3 239.062 268.388C243.83 271.337 247.965 275.206 251.227 279.769L255.873 285.542V438.952C256.739 447.729 254.216 456.506 248.822 463.479C241.76 469.072 232.812 471.714 223.848 470.851V476.781H300.854V470.851H295.731C288.649 470.934 281.748 468.617 276.146 464.279C270.438 459.897 267.584 451.455 267.584 438.952V300.774L406.617 472.177L414.364 481.73H448.269V265.353V259.423L448.277 259.415Z" fill="black"/>
<path d="M919.804 259.415V265.345C925.799 264.902 931.784 266.33 936.936 269.431C938.422 270.699 939.598 272.29 940.375 274.084C941.151 275.877 941.508 277.824 941.417 279.777C941.376 283.074 940.945 286.354 940.132 289.55C938.197 296.242 935.901 302.824 933.254 309.268L897.869 402.37L858.325 299.456C855.119 292.204 852.703 284.628 851.118 276.859C851.091 274.697 851.767 272.586 853.045 270.843C854.359 269.056 856.209 267.737 858.325 267.078C863.501 265.765 868.834 265.171 874.172 265.313V259.384H789.349L748.754 412.135L715.281 259.415H669.383L722.402 481.754H771.018L813.14 322.837L874.149 481.746H880.416L948.46 302.374C954.544 287.095 957.907 278.812 958.549 277.526C960.277 274.048 962.8 271.028 965.913 268.71C968.968 266.693 972.505 265.531 976.16 265.345V259.415H919.804Z" fill="black"/>
<path d="M921.503 629.98L877.047 518.814H844.075L800.833 629.98L772.78 692.633C768.219 704.451 761.945 715.533 754.16 725.521C749.039 730.87 742.244 734.302 734.904 735.247V741.185H807.272V735.247C799.989 735.221 792.766 733.915 785.933 731.388C783.566 730.054 781.62 728.082 780.315 725.696C779.011 723.31 778.401 720.605 778.554 717.889C778.91 711.819 780.434 705.874 783.043 700.383L792.192 679.205H854.549V690.712H897.799L917.187 741.216H965.96L921.503 629.98ZM854.549 653.181V667.244H797.801L814.385 629.98H845.72L860.126 590.339L874.83 629.98L883.447 653.181H854.549Z" fill="black"/>
<path d="M1199.97 518.814H1128.27V524.728C1132.97 524.154 1137.73 524.665 1142.2 526.22C1146.67 527.776 1150.72 530.335 1154.05 533.701C1156.27 536.808 1157.73 540.395 1158.31 544.172V651.934L1052.55 518.814H975.548V524.728C980.778 524.646 985.965 525.683 990.761 527.772C995.528 530.723 999.662 534.591 1002.93 539.152L1007.56 544.925V698.352C1008.43 707.127 1005.91 715.902 1000.51 722.87C993.456 728.472 984.505 731.117 975.54 730.251V736.181H1052.55V730.227H1047.42C1040.34 730.311 1033.44 727.994 1027.84 723.655C1022.12 719.273 1019.27 710.83 1019.27 698.328V560.173L1158.33 731.6L1166.08 741.146H1199.98V524.728V518.799L1199.97 518.814Z" fill="black"/>
<path d="M474.535 630.27V629.98C474.478 595.123 464.983 567.893 446.052 548.29C436.471 538.676 425.037 531.114 412.445 526.066C399.853 521.017 386.366 518.587 372.806 518.924V518.846H371.005C370.801 518.846 370.605 518.846 370.402 518.846H360.844V518.94C360.367 518.94 359.912 518.94 359.426 518.94C344.761 517.959 330.056 520.123 316.293 525.287C302.53 530.451 290.026 538.497 279.617 548.886C269.004 559.182 260.642 571.57 255.058 585.268C249.474 598.966 246.791 613.676 247.177 628.466C247.177 628.984 247.232 629.47 247.24 629.98C246.966 656.138 255.749 681.584 272.096 701.991C293.017 727.979 322.59 741.035 360.813 741.161H370.394H370.684C370.919 741.161 371.138 741.161 371.365 741.161H372.775V741.106C386.377 741.516 399.918 739.124 412.559 734.08C425.2 729.035 436.672 721.445 446.263 711.779C465.111 692.155 474.535 664.985 474.535 630.27ZM413.087 685.347C407.813 691.416 401.262 696.24 393.905 699.473C386.548 702.706 378.566 704.268 370.535 704.046H370.394V729.286H360.813C353.548 729.574 346.326 728.05 339.795 724.85C333.264 721.651 327.63 716.876 323.399 710.956C310.578 693.475 304.16 666.488 304.144 629.995V629.886C304.144 599.123 308.301 575.522 316.615 559.083C326.736 539.212 341.469 529.212 360.813 529.081H370.37V555.922H370.535C378.597 555.594 386.631 557.055 394.063 560.2C401.495 563.344 408.141 568.094 413.526 574.111C424.321 586.237 429.716 604.619 429.711 629.258C429.711 629.509 429.711 629.737 429.711 629.988C429.59 654.543 424.049 672.996 413.087 685.347Z" fill="black"/>
<path d="M210.492 697.677C203.069 684.932 194.55 672.86 185.032 661.597C177.958 654.245 169.857 647.957 160.983 642.929C173.689 641.525 185.866 637.058 196.47 629.909C199.537 627.693 202.372 625.17 204.93 622.379C214.903 610.978 220.144 596.19 219.579 581.044C219.781 568.675 216.437 556.508 209.944 545.984C203.938 536.208 194.838 528.725 184.092 524.728C169.067 520.326 153.444 518.314 137.795 518.767V518.845H0V524.885C7.03284 524.422 14.0878 525.355 20.7593 527.63C24.1493 529.148 26.8957 531.814 28.5147 535.16C30.5528 542.532 31.321 550.197 30.7865 557.828V702.148C31.3235 709.752 30.5551 717.392 28.5147 724.737C26.8768 728.023 24.1687 730.651 20.8377 732.188C14.177 734.629 7.07299 735.618 0 735.09L0 741.13H113.589V735.09C106.549 735.579 99.4839 734.618 92.8295 732.267C89.4477 730.776 86.7009 728.137 85.0741 724.815C83.0361 717.444 82.2678 709.778 82.8024 702.148V648.263H91.8895C99.5209 647.901 107.161 648.748 114.529 650.773C119.696 652.732 124.317 655.906 128.003 660.028C131.491 664.032 134.759 668.221 137.795 672.578C141.634 677.911 146.177 684.578 151.582 692.657L184.014 741.051H237.597L210.492 697.677ZM137.795 612.34V629.909H82.8024V530.768L137.795 530.689V556.494C144.219 556.651 148.527 556.808 150.564 557.122C157.045 557.889 163.029 560.982 167.406 565.828C171.6 570.905 173.75 577.366 173.438 583.946C173.627 589.845 172.044 595.665 168.895 600.653C165.84 605.078 161.404 608.361 156.283 609.987C150.232 611.483 144.028 612.273 137.795 612.34Z" fill="black"/>
<path d="M658.032 518.838L628.844 630.003L626.282 639.745L622.138 630.003L574.822 518.838H484.124V524.909H491.174C496.327 524.672 501.454 525.772 506.058 528.101C509.247 529.699 511.833 532.289 513.43 535.482C515.068 542.376 515.673 549.476 515.223 556.549V697.23C515.223 707.165 515.116 712.742 514.902 713.96C514.06 718.26 512.331 722.336 509.826 725.929C507.278 729.03 503.937 731.38 500.159 732.729C495.78 734.437 491.1 735.237 486.403 735.082H484.124V741.208H560.111V735.137C552.31 735.732 544.514 733.932 537.761 729.976C533.185 726.781 529.903 722.051 528.51 716.642C527.743 709.95 527.468 703.21 527.687 696.477V539.827L566.417 630.027L614.163 741.208H639.599L667.597 630.035L683.68 566.189V630.035V741.208H725.332V518.838H658.032Z" fill="black"/>
</g>
<defs>
<clipPath id="clip0_7_316">
<rect width="1200" height="741.177" fill="white"/>
</clipPath>
</defs>
</svg>
