<svg width="1360" height="290" viewBox="0 0 1360 290" fill="none" xmlns="http://www.w3.org/2000/svg">
<path d="M161.905 0H129.524H97.1429H64.7619H32.381V32.216H0V64.4321V96.6482V128.864V161.08V193.296V225.512V257.728H32.381V289.944H64.7619H97.1429H129.524H161.905H194.286V257.728H161.905H129.524H97.1429H64.7619V225.512V193.296V161.08V128.864V96.6482V64.4321V32.216H97.1429H129.524H161.905H194.286V0H161.905Z" fill="black"/>
<path d="M226.667 32.2161H194.286V64.4321H226.667V32.2161Z" fill="black"/>
<path d="M226.667 225.512H194.286V257.729H226.667V225.512Z" fill="black"/>
<path d="M291.429 193.296V161.08V128.864V96.6482V64.4321V32.2161H259.048V64.4321H226.667V96.6482V128.864V161.08V193.296V225.512H259.048V257.728H291.429V225.512V193.296Z" fill="black"/>
<path d="M356.191 32.2161H388.572V0H356.191H323.81H291.429V32.2161H323.81H356.191Z" fill="black"/>
<path d="M323.81 257.729H291.429V289.945H323.81H356.191H388.572V257.729H356.191H323.81Z" fill="black"/>
<path d="M971.429 32.216V257.728H939.048V225.512H906.667V289.944H841.905V32.216H809.524V0H874.286V32.216H906.667V64.4321H939.048V32.216H971.429Z" fill="black"/>
<path d="M1036.19 32.2161H1068.57V0H1036.19H1003.81H971.429V32.2161H1003.81H1036.19Z" fill="black"/>
<path d="M1003.81 257.729H971.429V289.945H1003.81H1036.19H1068.57V257.729H1036.19H1003.81Z" fill="black"/>
<path d="M582.857 225.512H550.476H518.095H485.715V257.729H518.095V289.945H550.476H582.857H615.238V257.729H647.619V225.512H615.238H582.857Z" fill="black"/>
<path d="M615.238 32.2161V0H582.857H550.476H518.095V32.2161H485.715V64.4321H518.095H550.476H582.857H615.238H647.619V32.2161H615.238Z" fill="black"/>
<path d="M518.095 96.6482H485.715V128.864H518.095V96.6482Z" fill="black"/>
<path d="M485.714 64.4321H453.333V96.6482H485.714V64.4321Z" fill="black"/>
<path d="M550.476 161.08H582.857H615.238V128.864H582.857H550.476H518.095V161.08H550.476Z" fill="black"/>
<path d="M647.619 161.08H615.238V193.296H647.619V161.08Z" fill="black"/>
<path d="M680 193.296H647.619V225.512H680V193.296Z" fill="black"/>
<path d="M485.714 193.296V225.512H420.952V257.728H388.571V32.2161H420.952V64.4321H453.333V193.296H485.714Z" fill="black"/>
<path d="M1262.86 225.512H1230.48H1198.1H1165.71V257.729H1198.1V289.945H1230.48H1262.86H1295.24V257.729H1327.62V225.512H1295.24H1262.86Z" fill="black"/>
<path d="M1295.24 32.2161V0H1262.86H1230.48H1198.1V32.2161H1165.71V64.4321H1198.1H1230.48H1262.86H1295.24H1327.62V32.2161H1295.24Z" fill="black"/>
<path d="M1360 64.4321H1327.62V96.6482H1360V64.4321Z" fill="black"/>
<path d="M1198.1 96.6482H1165.71V128.864H1198.1V96.6482Z" fill="black"/>
<path d="M1230.48 161.08H1262.86H1295.24V128.864H1262.86H1230.48H1198.1V161.08H1230.48Z" fill="black"/>
<path d="M1327.62 161.08H1295.24V193.296H1327.62V161.08Z" fill="black"/>
<path d="M1360 193.296H1327.62V225.512H1360V193.296Z" fill="black"/>
<path d="M1133.33 96.6482V193.296H1165.71V225.512H1100.95V257.728H1068.57V32.2161H1100.95V64.4321H1165.71V96.6482H1133.33Z" fill="black"/>
<path d="M777.143 0V32.216H744.762V289.944H680V96.6482H647.619V64.4321H680V32.216H712.381V0H777.143Z" fill="black"/>
<path d="M809.524 32.2161H777.143V64.4321H809.524V32.2161Z" fill="black"/>
</svg>
