<svg xmlns="http://www.w3.org/2000/svg" viewBox="0 0 542.484 140.44"><defs><style>.a{fill:#fcfce0;}</style></defs><path class="a" d="M168.75,0,135,140h2.5l6.931-28.75h51.138L202.5,140H205L171.25,0ZM145.033,108.75,170,5.185,194.967,108.75Z"/><path class="a" d="M237.5,0h-35V140h35a35,35,0,0,0,35-35V35A35,35,0,0,0,237.5,0ZM270,105a32.5,32.5,0,0,1-32.5,32.5H205V2.5h32.5A32.5,32.5,0,0,1,270,35Z"/><polygon class="a" points="67.5 0 67.5 2.5 67.5 67.5 67.5 70 67.5 137.5 67.5 140 70 140 137.5 140 137.5 137.5 70 137.5 70 70 112.5 70 112.5 67.5 70 67.5 70 2.5 137.5 2.5 137.5 0 70 0 67.5 0"/><polygon class="a" points="472.484 0.44 472.484 2.94 472.484 67.94 472.484 70.44 472.484 137.94 472.484 140.44 474.984 140.44 542.484 140.44 542.484 137.94 474.984 137.94 474.984 70.44 517.484 70.44 517.484 67.94 474.984 67.94 474.984 2.94 542.484 2.94 542.484 0.44 474.984 0.44 472.484 0.44"/><polygon class="a" points="67.5 67.5 2.5 67.5 2.5 0 0 0 0 67.5 0 70 0 140 2.5 140 2.5 70 67.5 70 67.5 140 70 140 70 70 70 67.5 70 0 67.5 0 67.5 67.5"/><polygon class="a" points="371.234 0.44 337.484 0.44 337.484 2.94 371.234 2.94 371.234 137.94 337.484 137.94 337.484 140.44 371.234 140.44 373.734 140.44 407.484 140.44 407.484 137.94 373.734 137.94 373.734 2.94 407.484 2.94 407.484 0.44 373.734 0.44 371.234 0.44"/><polygon class="a" points="272.484 0.016 269.984 0.016 269.984 137.516 269.984 140.016 272.484 140.016 339.984 140.016 339.984 137.516 272.484 137.516 272.484 0.016"/><polygon class="a" points="472.484 135.255 407.484 0.44 404.984 0.44 404.984 140.44 407.484 140.44 407.484 5.625 472.484 140.44 474.984 140.44 474.984 0.44 472.484 0.44 472.484 135.255"/><polygon class="a" points="171.242 2.72 171.242 0.22 168.742 0.22 134.992 0.22 134.992 2.72 168.742 2.72 168.742 137.72 134.992 137.72 134.992 140.22 168.742 140.22 171.242 140.22 204.992 140.22 204.992 137.72 171.242 137.72 171.242 2.72"/><path class="a" d="M237.492.22a35,35,0,1,0,32.5,47.988V105.22a32.5,32.5,0,0,1-65,0h-2.5a35,35,0,0,0,70,0v-70A35,35,0,0,0,237.492.22Zm0,67.5a32.5,32.5,0,1,1,32.5-32.5A32.5,32.5,0,0,1,237.492,67.72Z"/><path class="a" d="M304.992,70.22a35,35,0,1,0,35,35A35,35,0,0,0,304.992,70.22Zm0,67.5a32.5,32.5,0,1,1,32.5-32.5A32.5,32.5,0,0,1,304.992,137.72Z"/><path class="a" d="M339.992,35.22a35,35,0,1,0-35,35A35,35,0,0,0,339.992,35.22Zm-35,32.5a32.5,32.5,0,1,1,32.5-32.5A32.5,32.5,0,0,1,304.992,67.72Z"/><path class="a" d="M337.492.22v2.5h67.5v32.5a32.508,32.508,0,0,1-23.91,31.344l.01.006-8.6,2.354-.014,0-9.247,2.53,0,.009a35.009,35.009,0,0,0-25.741,33.753v35h2.5v-35a32.509,32.509,0,0,1,23.93-31.35h-.029l8.6-2.354.9-.246,8.361-2.288,0-.009A35.008,35.008,0,0,0,407.492,35.22V.22h-70Z"/></svg>