<svg xmlns="http://www.w3.org/2000/svg" viewBox="0 0 700 300.16"><polygon points="405 120.16 385 140.16 325 140.16 345 120.16 345 60.16 325 40.16 345 20.16 365 40.16 365 120.16 405 120.16"/><rect x="370.858" y="26.018" width="28.284" height="28.284" transform="translate(84.367 283.999) rotate(-45)"/><polygon points="435 100 435 100.16 415 80.16 415.16 80.16 435 100"/><polygon points="435 40.16 435 60 434.84 60.16 435 60.16 435 60 455 80 454.84 80.16 455 80.16 435 100.16 435 100 415.16 80.16 415 80 415 40.16 435 20.16 495 20.16 475 40.16 435 40.16"/><polygon points="495 80.16 495 120.16 475 140.16 415 140.16 435 120.16 475 120.16 475 100 455.16 80.16 455.08 80.08 455.16 80 475 60.16 494.84 80 494.92 80.08 494.84 80.16 495 80.16"/><polygon points="495 80.16 494.84 80.16 494.92 80.08 495 80.16"/><polygon points="455.16 80.16 455 80.16 455.08 80.08 455.16 80.16"/><polygon points="435 60 435 60.16 434.84 60.16 435 60"/><polygon points="415.16 80.16 415 80.16 415 80 415.16 80.16"/><polygon points="435 60 435 60.16 434.84 60.16 435 60"/><polygon points="455.16 80 455.08 80.08 455 80 455.16 80"/><polygon points="495 80 494.84 80 475 60.16 475 60 495 80"/><polygon points="475 60 475 60.16 455.16 80 455 80 475 60"/><polygon points="495 80 494.92 80.08 494.84 80 495 80"/><rect x="510.858" y="106.018" width="28.284" height="28.284" transform="translate(68.803 406.425) rotate(-45)"/><polygon points="315 120 295 140 275 120 275 20 245 20 265 0 295 0 295 100 315 120"/><polygon points="265 62.5 257.5 70 245 70 245 140 225 140 225 70 205 70 212.5 62.5 225 62.5 225 20 195.11 20 195.11 110.11 205 120 185 140 165 120 175.11 109.89 175.11 39.89 175 40 155 20 175 0 195 20 215 0 245 0 245 62.5 265 62.5"/><polygon points="180 230.16 180 270.16 170 280.16 190 300.16 210 280.16 200 270.16 200 230.16 210 220.16 190 200.16 170 220.16 180 230.16"/><rect x="175.858" y="166.018" width="28.284" height="28.284" transform="translate(-71.743 187.118) rotate(-45)"/><rect x="665.858" y="166.018" width="28.284" height="28.284" transform="translate(71.775 533.6) rotate(-45)"/><polygon points="690 270.16 700 280.16 680 300.16 660 280.16 670 270.16 670 230.16 660 220.16 680 200.16 700 220.16 690 230.16 690 270.16"/><polygon points="330 280 310 300 290 280 290 240 250 240 250 270 260 280 240 300 220 280 230 270 230 180 250 160 250 230 280 200 250 200 270 180 310 180 270 220 290 220 310 240 310 260 330 280"/><polygon points="400 280.16 380 300.16 340 300.16 340 210.16 330 200.16 350 180.16 370 200.16 360 210.16 360 280.16 400 280.16"/><polygon points="440 280.16 420 300.16 400 280.16 400 210.16 390 200.16 410 180.16 430 200.16 420 210.16 420 260.16 440 280.16"/><polygon points="530 180.16 510 200.16 470 200.16 470 220.16 490 240.16 470 260.16 450 240.16 450 200.16 470 180.16 530 180.16"/><polygon points="529.92 240.08 530 240.16 530 280.16 510 300.16 450 300.16 470 280.16 510 280.16 510 260 490.16 240.16 490 240.16 490.08 240.08 490 240 510 220 530 240 529.92 240.08"/><polygon points="650 280 630 300 610 280 610 240 570 240 570 270 580 280 560 300 540 280 550 270 550 180 570 160 570 230 600 200 570 200 590 180 630 180 590 220 610 220 630 240 630 260 650 280"/><polygon points="160 280 140 300 120 280 120 180 90 180 110 160 140 160 140 260 160 280"/><polygon points="110 222.5 102.5 230 90 230 90 300 70 300 70 230 50 230 57.5 222.5 70 222.5 70 180 40.11 180 40.11 270.11 50 280 30 300 10 280 20.11 269.89 20.11 199.89 20 200 0 180 20 160 40 180 60 160 90 160 90 222.5 110 222.5"/></svg>