<svg xmlns="http://www.w3.org/2000/svg" viewBox="0 0 480 320"><path d="M170,220a30,30,0,0,0-30,30v40a30,30,0,0,0,60,0V250A30,30,0,0,0,170,220Zm10,70a10,10,0,0,1-20,0V250a10,10,0,0,1,20,0Z"/><path d="M380,240a10,10,0,0,1,10,10h20a30,30,0,1,0-30,30,10,10,0,1,1-10,10H350a30,30,0,1,0,30-30,10,10,0,0,1,0-20Z"/><polygon points="460 220 450 245 440 270 450 295 460 320 480 320 460 270 480 220 460 220"/><polygon points="440 220 425 220 422.5 222.5 420 225 420 230 420 320 440 320 440 270 440 230 440 220"/><path d="M130,250a30,30,0,0,0-30-30H75l-2.5,2.5L70,225v95H90V280h6.667L110,320h20l-14.727-44.181A29.979,29.979,0,0,0,130,250ZM90,240h10a10,10,0,0,1,0,20H90Z"/><polygon points="340 0 340 80 320 100 310 90 300 100 280 80 280 5 285 0 300 0 300 70 310 60 320 70 320 5 325 0 340 0"/><polygon points="30 120 20 110 5 110 0 110 0 115 0 120 0 130 0 150 0 170 0 190 0 210 20 210 20 190 20 170 20 150 20 140 30 150 40 140 40 150 40 170 40 190 40 210 60 210 60 190 60 170 60 150 60 130 60 110 40 110 30 120"/><polygon points="182.5 2.5 180 5 180 10 180 20 180 40 180 50 160 0 140 0 140 20 140 40 140 60 140 80 140 100 160 100 160 80 160 60 160 50 180 100 200 100 200 80 200 60 200 40 200 20 200 10 200 0 185 0 182.5 2.5"/><path d="M100,110a30,30,0,0,0-30,30v70H90V190h20v20h20V140A30,30,0,0,0,100,110Zm10,60H90V140a10,10,0,0,1,20,0Z"/><path d="M170,110a30,30,0,0,0-30,30v40a30,30,0,0,0,60,0V170H180v10a10,10,0,0,1-20,0V140a10,10,0,0,1,20,0v10h20V140A30,30,0,0,0,170,110Z"/><path d="M30,220A30,30,0,0,0,0,250v40a30,30,0,0,0,45.617,25.617L50,320H60V270H30v10H40v10a10,10,0,0,1-20,0V250a10,10,0,0,1,20,0v10H60V250A30,30,0,0,0,30,220Z"/><polygon points="250 100 260 100 270 100 270 85 270 80 265 80 260 80 250 80 230 80 230 60 240 60 250 60 250 45 250 40 245 40 240 40 230 40 230 20 250 20 260 20 270 20 270 5 270 0 265 0 260 0 250 0 230 0 215 0 212.5 2.5 210 5 210 10 210 100 230 100 250 100"/><polygon points="330 220 320 220 300 220 285 220 282.5 222.5 280 225 280 230 280 320 300 320 320 320 330 320 340 320 340 305 340 300 335 300 330 300 320 300 300 300 300 280 310 280 320 280 320 265 320 260 315 260 310 260 300 260 300 240 320 240 330 240 340 240 340 225 340 220 335 220 330 220"/><polygon points="392.5 112.5 390 115 390 120 390 130 390 150 390 160 370 110 350 110 350 130 350 150 350 170 350 190 350 210 370 210 370 190 370 170 370 160 390 210 410 210 410 190 410 170 410 150 410 130 410 120 410 110 395 110 392.5 112.5"/><polygon points="475 110 470 110 460 110 440 110 425 110 422.5 112.5 420 115 420 120 420 210 440 210 440 210 460 210 470 210 480 210 480 195 480 190 475 190 470 190 460 190 440 190 440 170 450 170 460 170 460 155 460 150 455 150 450 150 440 150 440 130 460 130 470 130 480 130 480 115 480 110 475 110"/><polygon points="270 110 270 210 250 210 250 170 230 170 230 210 210 210 210 115 215 110 230 110 230 150 250 150 250 115 255 110 270 110"/><polygon points="330 110 290 110 280 110 280 125 280 130 285 130 290 130 300 130 300 150 300 170 300 190 290 190 280 190 280 205 280 210 285 210 290 210 330 210 340 210 340 195 340 190 335 190 330 190 320 190 320 170 320 150 320 130 330 130 340 130 340 115 340 110 335 110 330 110"/><polygon points="270 220 265 220 260 220 250 220 230 220 220 220 210 220 210 220 210 240 215 240 220 240 230 240 230 320 250 320 250 240 260 240 270 240 270 240 270 225 270 225 270 220"/></svg>