<svg xmlns="http://www.w3.org/2000/svg" viewBox="0 0 720 210"><polygon points="200 0 200 80 180 100 170 90 160 100 140 80 140 5 145 0 160 0 160 70 170 60 180 70 180 5 185 0 200 0"/><polygon points="42.5 2.5 40 5 40 10 40 20 40 40 40 50 20 0 0 0 0 20 0 40 0 60 0 80 0 100 20 100 20 80 20 60 20 50 40 100 60 100 60 80 60 60 60 40 60 20 60 10 60 0 45 0 42.5 2.5"/><polygon points="110 100 120 100 130 100 130 85 130 80 125 80 120 80 110 80 90 80 90 60 100 60 110 60 110 45 110 40 105 40 100 40 90 40 90 20 110 20 120 20 130 20 130 5 130 0 125 0 120 0 110 0 90 0 75 0 72.5 2.5 70 5 70 10 70 100 90 100 110 100"/><polygon points="270 10 260 0 245 0 240 0 240 5 240 10 240 20 240 40 240 60 240 80 240 100 260 100 260 80 260 60 260 40 260 30 270 40 280 30 280 40 280 60 280 80 280 100 300 100 300 80 300 60 300 40 300 20 300 0 280 0 270 10"/><path d="M340,0a30,30,0,0,0-30,30v70h20V80h20v20h20V30A30,30,0,0,0,340,0Zm10,60H330V30a10,10,0,0,1,20,0Z"/><path d="M410,0a30,30,0,0,0-30,30V70a30,30,0,0,0,60,0V60H420V70a10,10,0,0,1-20,0V30a10,10,0,0,1,20,0V40h20V30A30,30,0,0,0,410,0Z"/><polygon points="632.5 2.5 630 5 630 10 630 20 630 40 630 50 610 0 590 0 590 20 590 40 590 60 590 80 590 100 610 100 610 80 610 60 610 50 630 100 650 100 650 80 650 60 650 40 650 20 650 10 650 0 635 0 632.5 2.5"/><polygon points="715 0 710 0 700 0 680 0 665 0 662.5 2.5 660 5 660 10 660 100 680 100 680 100 700 100 710 100 720 100 720 85 720 80 715 80 710 80 700 80 680 80 680 60 690 60 700 60 700 45 700 40 695 40 690 40 680 40 680 20 700 20 710 20 720 20 720 5 720 0 715 0"/><polygon points="510 0 510 100 490 100 490 60 470 60 470 100 450 100 450 5 455 0 470 0 470 40 490 40 490 5 495 0 510 0"/><polygon points="570 0 530 0 520 0 520 15 520 20 525 20 530 20 540 20 540 40 540 60 540 80 530 80 520 80 520 95 520 100 525 100 530 100 570 100 580 100 580 85 580 80 575 80 570 80 560 80 560 60 560 40 560 20 570 20 580 20 580 5 580 0 575 0 570 0"/><path d="M290,110a30,30,0,0,0-30,30v40a30,30,0,0,0,60,0V140A30,30,0,0,0,290,110Zm10,70a10,10,0,0,1-20,0V140a10,10,0,0,1,20,0Z"/><path d="M500,130a10,10,0,0,1,10,10h20a30,30,0,1,0-30,30,10,10,0,1,1-10,10H470a30,30,0,1,0,30-30,10,10,0,0,1,0-20Z"/><polygon points="580 110 570 135 560 160 570 185 580 210 600 210 580 160 600 110 580 110"/><polygon points="560 110 545 110 542.5 112.5 540 115 540 120 540 210 560 210 560 160 560 120 560 110"/><path d="M250,140a30,30,0,0,0-30-30H195l-2.5,2.5L190,115v95h20V170h6.667L230,210h20l-14.727-44.181A29.979,29.979,0,0,0,250,140Zm-40-10h10a10,10,0,0,1,0,20H210Z"/><path d="M150,110a30,30,0,0,0-30,30v40a30,30,0,0,0,45.617,25.617L170,210h10V160H150v10h10v10a10,10,0,0,1-20,0V140a10,10,0,0,1,20,0v10h20V140A30,30,0,0,0,150,110Z"/><polygon points="450 110 440 110 420 110 405 110 402.5 112.5 400 115 400 120 400 210 420 210 440 210 450 210 460 210 460 195 460 190 455 190 450 190 440 190 420 190 420 170 430 170 440 170 440 155 440 150 435 150 430 150 420 150 420 130 440 130 450 130 460 130 460 115 460 110 455 110 450 110"/><polygon points="390 110 385 110 380 110 370 110 350 110 340 110 330 110 330 110 330 130 335 130 340 130 350 130 350 210 370 210 370 130 380 130 390 130 390 130 390 115 390 115 390 110"/></svg>