<svg xmlns="http://www.w3.org/2000/svg" viewBox="0 0 945 105"><defs><style>.a{fill:#fcfce0;}</style></defs><path class="a" d="M812.083,75.833l-23.75-23.75-.625-.625-23.75-23.75-3.125-3.125L747.5,11.25v-10h58.238A26.257,26.257,0,1,0,813.75,0H747.5V0H735V0H623.75a52.5,52.5,0,0,0-52.5,52.5,40,40,0,0,1-40,40h-110V53.333H525v-1.25H421.253V12.5H525V0H420V52.083h0V0H407.5V52.5h-80V0H315V105h12.5V53.748h80V105H420V53.333h0V105H531.25a52.5,52.5,0,0,0,52.5-52.5,40,40,0,0,1,40-40H630V1.25h46.252V105h12.5V1.25H735V105h12.5V13.75l12.083,12.083,3.125,3.125,23.75,23.75.625.625,23.75,23.75,3.125,3.125,24.375,24.375,1.25-1.25L815.208,78.958ZM838.75,26.25a25,25,0,1,1-25-25A25,25,0,0,1,838.75,26.25Z"/><path class="a" d="M944.968,51.25a52.482,52.482,0,0,0-104.936,0H840V105h1.25V52.5h102.5V105H945V51.25Zm-92.436,0a39.987,39.987,0,0,1,79.936,0Z"/><path class="a" d="M98.664,27.475q-.608-1.115-1.265-2.2A52.484,52.484,0,0,0,27.475,6.336q-1.115.607-2.2,1.265a52.713,52.713,0,0,0-11.638,9.6q-.848.933-1.651,1.905a52.461,52.461,0,0,0-5.652,58.42q.607,1.114,1.265,2.2a52.713,52.713,0,0,0,9.6,11.638q.933.847,1.905,1.651a52.461,52.461,0,0,0,58.42,5.652q1.114-.608,2.2-1.265A52.484,52.484,0,0,0,98.664,27.475ZM52.5,92.5a40,40,0,1,1,40-40A40,40,0,0,1,52.5,92.5Z"/><path class="a" d="M182.083,75.833l-23.75-23.75-.625-.625-23.75-23.75-3.125-3.125L117.5,11.25v-10h58.238A26.257,26.257,0,1,0,183.75,0H117.5V0H105V105h12.5V13.75l12.083,12.083,3.125,3.125,23.75,23.75.625.625,23.75,23.75,3.125,3.125,24.375,24.375,1.25-1.25L185.208,78.958ZM208.75,26.25a25,25,0,1,1-25-25A25,25,0,0,1,208.75,26.25Z"/><path class="a" d="M262.5,0a52.5,52.5,0,0,0,0,105V92.5a40,40,0,0,1,0-80V1.25A51.249,51.249,0,0,1,313.75,52.5H315A52.5,52.5,0,0,0,262.5,0Z"/></svg>