<svg width="945" height="944" viewBox="0 0 945 944" fill="none" xmlns="http://www.w3.org/2000/svg">
<g clip-path="url(#clip0_7_317)">
<path d="M786.516 629.333C745.452 629.338 706.018 645.408 676.642 674.107C647.266 702.807 630.278 741.86 629.309 782.921H629.213V944H632.958V786.667H940.074V944H943.819V782.921H943.723C942.754 741.86 925.766 702.807 896.39 674.107C867.014 645.408 827.581 629.338 786.516 629.333ZM666.762 782.921C667.722 751.793 680.759 722.262 703.113 700.583C725.466 678.904 755.38 666.78 786.516 666.78C817.653 666.78 847.566 678.904 869.919 700.583C892.273 722.262 905.311 751.793 906.27 782.921H666.762Z" fill="#FCFCE0"/>
<path d="M295.622 82.3378C294.408 80.1101 293.144 77.9124 291.832 75.7447C270.893 41.1685 237.448 15.9831 198.437 5.41494C159.427 -5.15322 117.845 -0.292704 82.322 18.9879C80.0948 20.2006 77.8976 21.4642 75.7303 22.7789C62.7878 30.6468 51.0441 40.3359 40.8599 51.5484C39.166 53.4124 37.5171 55.3154 35.9131 57.2573C15.9646 81.4271 3.69386 111.009 0.676339 142.204C-2.34118 173.4 4.03221 204.786 18.9783 232.332C20.1907 234.558 21.4542 236.755 22.7685 238.925C30.635 251.87 40.3222 263.616 51.5325 273.802C53.3962 275.494 55.2988 277.143 57.2404 278.75C81.4055 298.702 110.981 310.975 142.171 313.993C173.361 317.011 204.74 310.637 232.281 295.688C234.507 294.473 236.704 293.209 238.873 291.897C273.446 270.954 298.629 237.502 309.195 198.481C319.762 159.461 314.902 117.869 295.622 82.3378ZM157.303 277.206C133.599 277.206 110.427 270.176 90.7181 257.004C71.0089 243.832 55.6474 225.111 46.5762 203.207C37.505 181.303 35.1316 157.2 39.756 133.947C44.3805 110.694 55.7951 89.3348 72.5564 72.5703C89.3178 55.8057 110.673 44.389 133.922 39.7636C157.17 35.1383 181.268 37.5122 203.168 46.5851C225.068 55.658 243.786 71.0224 256.955 90.7354C270.124 110.448 277.153 133.625 277.153 157.333C277.153 189.126 264.526 219.616 242.05 242.096C219.574 264.577 189.089 277.206 157.303 277.206Z" fill="#FCFCE0"/>
<path d="M786.516 314.667V277.206C754.73 277.206 724.245 264.577 701.769 242.096C679.293 219.616 666.666 189.126 666.666 157.333C666.666 125.541 679.293 95.0509 701.769 72.5703C724.245 50.0898 754.73 37.4603 786.516 37.4603V3.74604C806.682 3.74565 826.65 7.71803 845.28 15.4364C863.911 23.1547 880.839 34.4679 895.099 48.7298C909.358 62.9918 920.669 79.9233 928.386 98.5576C936.103 117.192 940.074 137.164 940.074 157.333H943.819C943.819 126.216 934.594 95.797 917.309 69.9236C900.024 44.0503 875.457 23.8845 846.713 11.9763C817.97 0.0681093 786.341 -3.04762 755.828 3.02313C725.314 9.09387 697.285 24.0784 675.286 46.0819C653.287 68.0853 638.305 96.1195 632.235 126.639C626.166 157.159 629.281 188.793 641.187 217.542C653.093 246.291 673.255 270.863 699.123 288.151C724.991 305.439 755.404 314.667 786.516 314.667Z" fill="#FCFCE0"/>
<path d="M767.789 472C767.789 503.792 755.162 534.282 732.686 556.763C710.21 579.244 679.726 591.873 647.939 591.873H318.352V474.496H629.213V470.75H318.361V352.127H629.213V314.667H352.06V41.2063L388.263 77.417L397.627 86.7821L468.788 157.957L470.66 159.83L541.821 231.004L551.184 240.369L624.218 313.417L627.963 309.671L554.93 236.623L545.566 227.258L474.405 156.084L472.533 154.211L401.372 83.036L392.009 73.671L352.06 33.7143V3.74603H526.555C507.688 9.78688 491.793 22.7248 482.047 39.9755C472.301 57.2262 469.42 77.5195 473.981 96.8017C478.541 116.084 490.207 132.936 506.648 143.99C523.088 155.045 543.094 159.489 562.668 156.435C582.242 153.38 599.943 143.052 612.235 127.514C624.528 111.975 630.507 92.3703 628.978 72.615C627.449 52.8597 618.525 34.4085 603.988 20.9471C589.451 7.48573 570.372 0.00528142 550.561 0L352.06 0H314.606V314.667V470.75V314.667H277.153V472H37.4531V314.667H0V633.073H138.583V944H176.036V633.073H314.606V944H352.06V670.54L388.263 706.753L397.627 716.118L468.788 787.293L470.66 789.166L541.821 860.341L551.184 869.706L624.218 942.753L627.963 939.007L554.93 865.96L545.566 856.595L474.405 785.42L472.533 783.547L401.372 712.372L392.009 703.007L352.06 663.042V633.073H526.555C507.69 639.108 491.793 652.037 482.04 669.279C472.286 686.521 469.392 706.808 473.936 726.09C478.479 745.373 490.127 762.232 506.552 773.303C522.978 784.373 542.973 788.841 562.548 785.814C582.122 782.787 599.835 772.488 612.151 756.973C624.467 741.458 630.48 721.868 628.989 702.113C627.499 682.359 618.615 663.893 604.11 650.402C589.606 636.911 570.548 629.388 550.741 629.333H647.939C689.659 629.333 729.669 612.757 759.17 583.251C788.67 553.746 805.243 513.727 805.243 472C805.243 440.208 817.87 409.718 840.346 387.237C862.822 364.756 893.306 352.127 925.093 352.127H943.819V314.667H925.093C883.373 314.667 843.363 331.243 813.862 360.749C784.362 390.254 767.789 430.273 767.789 472ZM625.468 78.6667C625.468 93.4846 621.074 107.97 612.844 120.29C604.613 132.611 592.914 142.214 579.227 147.884C565.539 153.555 550.478 155.039 535.948 152.148C521.417 149.257 508.07 142.121 497.594 131.644C487.119 121.166 479.984 107.816 477.094 93.283C474.204 78.7498 475.687 63.6857 481.357 49.9958C487.026 36.3058 496.627 24.6048 508.946 16.3724C521.264 8.14005 535.746 3.74603 550.561 3.74603C570.428 3.74603 589.48 11.6394 603.528 25.6898C617.576 39.7401 625.468 58.7965 625.468 78.6667ZM37.4531 629.333V475.746H277.153V629.333H37.4531ZM625.468 708C625.468 722.818 621.074 737.303 612.844 749.624C604.613 761.944 592.914 771.547 579.227 777.218C565.539 782.888 550.478 784.372 535.948 781.481C521.417 778.59 508.07 771.455 497.594 760.977C487.119 750.499 479.984 737.149 477.094 722.616C474.204 708.083 475.687 693.019 481.357 679.329C487.026 665.639 496.627 653.938 508.946 645.706C521.264 637.473 535.746 633.079 550.561 633.079C570.427 633.079 589.478 640.972 603.526 655.021C617.573 669.07 625.466 688.125 625.468 707.994V708ZM352.06 629.333H314.606V474.496V629.333H352.06Z" fill="#FCFCE0"/>
</g>
<defs>
<clipPath id="clip0_7_317">
<rect width="944.922" height="944" fill="white"/>
</clipPath>
</defs>
</svg>
