<?xml version="1.0" encoding="utf-8"?>
<!-- Generator: Adobe Illustrator 26.0.3, SVG Export Plug-In . SVG Version: 6.00 Build 0)  -->
<svg version="1.1" id="Calque_1" xmlns="http://www.w3.org/2000/svg" xmlns:xlink="http://www.w3.org/1999/xlink" x="0px" y="0px"
	 viewBox="0 0 566.9 340.2" style="enable-background:new 0 0 566.9 340.2;" xml:space="preserve">
<style type="text/css">
	.st0{fill:#FCFCE0;}
</style>
<path class="st0" d="M566.9,56.7V85h-85v14.2h56.7v28.4h-56.7v14.2h85v28.3H453.5v-56.7c0,15.7-6.3,29.8-16.6,40.1
	c-10.3,10.2-24.4,16.6-40.1,16.6c-15.6,0-29.8-6.3-40.1-16.6c-10.2-10.2-16.6-24.4-16.6-40V56.7h28.3v56.7
	c0,15.7,12.7,28.3,28.3,28.3c0,0,0,0,0,0c7.8,0,14.9-3.2,20.1-8.3s8.3-12.2,8.3-20V56.7H566.9z"/>
<path class="st0" d="M340.2,113.4c0-15.7-6.3-29.8-16.6-40.1s-24.4-16.6-40.1-16.6c-31.3,0-56.7,25.4-56.7,56.7
	c0,15.7,6.3,29.8,16.6,40.1c10.3,10.2,24.4,16.6,40.1,16.6h0.1c9.9,0,19.7-2.6,28.3-7.6v7.6h28.3v-28.3h-7.6
	C337.5,133.1,340.2,123.4,340.2,113.4L340.2,113.4z M303.5,133.4c-5.1,5.1-12.2,8.3-20,8.3c-15.7,0-28.3-12.7-28.3-28.3
	c0-7.8,3.2-14.9,8.3-20s12.2-8.3,20-8.3c7.8,0,14.9,3.2,20,8.3s8.3,12.2,8.3,20C311.8,121.2,308.6,128.3,303.5,133.4z"/>
<path class="st0" d="M78,56.7H0v113.4h28.3v-42.5H78c19.6,0,35.4-15.9,35.4-35.4l0,0C113.4,72.6,97.5,56.7,78,56.7z M78,99.2H28.3
	V85H78c3.9,0,7.1,3.2,7.1,7.1l0,0C85,96,81.9,99.2,78,99.2z"/>
<circle class="st0" cx="170.1" cy="28.3" r="28.3"/>
<polygon class="st0" points="212.6,56.7 184.3,56.7 177.2,63.8 170.1,70.9 163,63.8 155.9,56.7 127.6,56.7 127.6,56.7 113.4,56.7 
	113.4,85 127.6,85 127.6,85 155.9,85 155.9,141.7 127.6,141.7 127.6,141.7 113.4,141.7 113.4,170.1 127.6,170.1 127.6,170.1 
	212.6,170.1 226.8,170.1 226.8,141.7 212.6,141.7 212.6,141.7 184.3,141.7 184.3,85 212.6,85 212.6,85 226.8,85 226.8,56.7 
	212.6,56.7 "/>
<path class="st0" d="M566.9,226.8v28.4h-85v14.2h56.7v28.3h-56.7v14.2h85v28.3H453.5v-56.7c0,15.7-6.3,29.8-16.6,40.1
	s-24.4,16.6-40.1,16.6c-15.6,0-29.8-6.3-40.1-16.6c-10.2-10.2-16.6-24.4-16.6-40v-56.8h28.3v56.7c0,0,0,0,0,0c0,7.8,3.2,14.9,8.3,20
	c5.1,5.1,12.2,8.3,20,8.3c7.8,0,14.9-3.2,20.1-8.3s8.3-12.2,8.3-20v-56.7H566.9z"/>
<path class="st0" d="M340.2,283.5c0-15.6-6.3-29.8-16.6-40.1c-10.3-10.3-24.4-16.6-40.1-16.6c-31.3,0-56.7,25.4-56.7,56.7
	c0,15.7,6.3,29.8,16.6,40.1c10.3,10.3,24.4,16.6,40.1,16.6h0.1c9.9,0,19.7-2.6,28.3-7.6v7.6h28.3v-28.3h-7.6
	C337.5,303.2,340.2,293.5,340.2,283.5L340.2,283.5z M303.5,303.5c-5.1,5.1-12.2,8.3-20,8.3c-15.7,0-28.3-12.7-28.3-28.3c0,0,0,0,0,0
	c0-7.8,3.2-14.9,8.3-20s12.2-8.3,20-8.3c7.8,0,14.9,3.2,20,8.3s8.3,12.2,8.3,20S308.6,298.4,303.5,303.5z"/>
<circle class="st0" cx="170.1" cy="198.4" r="28.3"/>
<path class="st0" d="M226.8,255.1v-28.4h-42.5l-14.2,14.2l-7.1-7.1l-7.1-7.1H85v113.4h141.7v-28.3h-42.5v-56.7H226.8z M155.9,311.8
	h-42.5v-56.7h42.5V311.8z"/>
<path class="st0" d="M85,311.8H56.7c0-15.7-12.7-28.4-28.3-28.4v56.7H0V226.8h28.3v28.4C59.7,255.1,85,280.5,85,311.8z"/>
</svg>
