<svg xmlns="http://www.w3.org/2000/svg" viewBox="0 0 490 140"><defs><style>.a{fill:#2c0fba;}.b{fill:#ff1a1a;}</style></defs><path class="a" d="M280,35,260,15,245,0,230,15,210,35h0V70h0V90h0v50h20V90h30v50h20V35ZM230,70V45l15-15,15,15V70Z"/><path d="M272.5,140H280V35h0L252.5,7.5,245,0l-7.5,7.5L210,35h0V70h0V80h0v60h10V80h50v60ZM220,70V40l25-25,25,25V70Z"/><path class="b" d="M280,35,246.875,1.875,245,0l-1.875,1.875L210,35h0V140h2.5V72.5h65V140H280v-1.875h0V72.5h0V70h0V35ZM212.5,70h0V36.25L245,3.75l32.5,32.5V70Z"/><path class="a" d="M105,0A35,35,0,0,0,70,35v70a35,35,0,0,0,70,0V35A35,35,0,0,0,105,0Zm15,105a15,15,0,0,1-30,0V35a15,15,0,0,1,30,0Z"/><path d="M105,0A35,35,0,0,0,70,35v70a35,35,0,0,0,70,0V35A35,35,0,0,0,105,0Zm25,105a25,25,0,0,1-50,0V35a25,25,0,0,1,50,0Z"/><path class="b" d="M105,0A35,35,0,0,0,70,35v70a35,35,0,0,0,70,0V35A35,35,0,0,0,105,0Zm32.5,105a32.5,32.5,0,0,1-65,0V35a32.5,32.5,0,0,1,65,0Z"/><path class="a" d="M455,0a35,35,0,0,0-35,35v70a35,35,0,0,0,70,0V35A35,35,0,0,0,455,0Zm15,105a15,15,0,0,1-30,0V35a15,15,0,0,1,30,0Z"/><path d="M455,0a35,35,0,0,0-35,35v70a35,35,0,0,0,70,0V35A35,35,0,0,0,455,0Zm25,105a25,25,0,0,1-50,0V35a25,25,0,0,1,50,0Z"/><path class="b" d="M455,0a35,35,0,0,0-35,35v70a35,35,0,0,0,70,0V35A35,35,0,0,0,455,0Zm32.5,105a32.5,32.5,0,0,1-65,0V35a32.5,32.5,0,0,1,65,0Z"/><rect x="375" width="20" height="140"/><rect x="350" y="120" width="70" height="20"/><rect x="350" width="70" height="20"/><polygon class="a" points="420 10 420 0 385 0 375 0 350 0 350 10 375 10 375 70 385 70 385 10 420 10"/><polygon class="a" points="350 130 350 140 385 140 395 140 420 140 420 130 395 130 395 70 385 70 385 130 350 130"/><polygon class="b" points="420 2.5 420 0 377.5 0 375 0 350 0 350 2.5 375 2.5 375 67.5 375 70 377.5 70 392.5 70 392.5 137.5 350 137.5 350 140 392.5 140 395 140 420 140 420 137.5 395 137.5 395 70 395 67.5 377.5 67.5 377.5 2.5 420 2.5"/><path d="M70,35A35.007,35.007,0,0,0,20,3.373V0H0V140H20V115l15-15,15,15v25H70V105L50,85,35,70,20,85V66.627A35.007,35.007,0,0,0,70,35ZM35,50A15,15,0,1,1,50,35,15,15,0,0,1,35,50Z"/><path class="a" d="M70,35A34.993,34.993,0,0,0,10,10.515V0H0V140H10V110L35,85l25,25v30H70V105L42.5,77.5,35,70l-7.5,7.5L10,95V59.485A34.993,34.993,0,0,0,70,35ZM35,60A25,25,0,1,1,60,35,25,25,0,0,1,35,60Z"/><path class="b" d="M70,35A35,35,0,0,0,2.5,22.012V0H0V140H2.5V106.25L35,73.75l32.5,32.5V140H70V105h0L36.875,71.875,35,70l-1.875,1.875L2.5,102.5V47.988A35,35,0,0,0,70,35ZM35,67.5A32.5,32.5,0,1,1,67.5,35,32.5,32.5,0,0,1,35,67.5Z"/><path class="a" d="M350,35A35.007,35.007,0,0,0,300,3.373V0H280V140h20V115l15-15,15,15v25h20V105L330,85,315,70,300,85V66.627A35.007,35.007,0,0,0,350,35ZM315,50a15,15,0,1,1,15-15A15,15,0,0,1,315,50Z"/><path d="M350,35a34.993,34.993,0,0,0-60-24.485V0H280V140h10V110l25-25,25,25v30h10V105L322.5,77.5,315,70l-7.5,7.5L290,95V59.485A34.993,34.993,0,0,0,350,35ZM315,60a25,25,0,1,1,25-25A25,25,0,0,1,315,60Z"/><path class="b" d="M350,35a35,35,0,0,0-67.5-12.988V0H280V140h2.5V106.25L315,73.75l32.5,32.5V140H350V105h0L316.875,71.875,315,70l-1.875,1.875L282.5,102.5V47.988A35,35,0,0,0,350,35ZM315,67.5A32.5,32.5,0,1,1,347.5,35,32.5,32.5,0,0,1,315,67.5Z"/><path d="M160,35a15,15,0,0,1,30,0h20a35,35,0,1,0-35,35V50A15,15,0,0,1,160,35Z"/><path d="M175,70V90a15,15,0,1,1-15,15H140a35,35,0,1,0,35-35Z"/><path class="a" d="M150,35a25,25,0,0,1,50,0h10a35,35,0,1,0-35,35V60A25,25,0,0,1,150,35Z"/><path class="a" d="M175,70V80a25,25,0,1,1-25,25H140a35,35,0,1,0,35-35Z"/><path class="b" d="M175,140v-2.5A32.5,32.5,0,0,1,142.5,105H140A35,35,0,0,0,175,140Z"/><path class="b" d="M140,35h2.5A32.5,32.5,0,0,1,175,2.5V0A35,35,0,0,0,140,35Z"/><path class="b" d="M175,70V67.5A32.5,32.5,0,0,1,142.5,35H140A35,35,0,0,0,175,70Z"/><path class="b" d="M175,70v2.5A32.5,32.5,0,0,1,207.5,105H210A35,35,0,0,0,175,70Z"/><path class="b" d="M210,105h-2.5A32.5,32.5,0,0,1,175,137.5V140A35,35,0,0,0,210,105Z"/><path class="b" d="M175,0V2.5A32.5,32.5,0,0,1,207.5,35H210A35,35,0,0,0,175,0Z"/></svg>