<svg xmlns="http://www.w3.org/2000/svg" viewBox="0 0 1020.472 170.081"><defs><style>.a{fill:#fcfce0;}</style></defs><path class="a" d="M510.233,56.69a56.7,56.7,0,1,0,0,113.391V141.73a28.345,28.345,0,1,1,28.35-28.34h28.35v-.009A56.7,56.7,0,0,0,510.233,56.69Z"/><path class="a" d="M963.779,56.691h0a56.693,56.693,0,0,0-56.691,56.693v0a56.693,56.693,0,0,0,56.693,56.691V141.73h56.693V113.384h0v0A56.693,56.693,0,0,0,963.779,56.691Zm0,56.692V141.73a28.347,28.347,0,0,1-28.346-28.347h0a28.346,28.346,0,0,1,28.346-28.346h0a28.346,28.346,0,0,1,28.346,28.346Z"/><path class="a" d="M907.086,56.69h0a56.693,56.693,0,0,0-56.691,56.693H878.74a28.346,28.346,0,0,1,28.346-28.347Z"/><path class="a" d="M850.392,56.69V170.08h-28.34v-56.7a56.7,56.7,0,0,1-113.39.01V85.04h-56.69v85.04h-28.35V85.04h-56.69V56.69h170.08v56.69a28.345,28.345,0,1,0,56.69,0V56.69Z"/><polygon class="a" points="283.462 56.69 283.462 170.08 255.122 170.08 255.122 85.04 198.422 85.04 198.422 170.08 170.082 170.08 170.082 85.04 113.382 85.04 113.382 56.69 283.462 56.69"/><path class="a" d="M453.543,56.691H425.2v56.693a28.346,28.346,0,0,1-28.346,28.346h0A28.347,28.347,0,0,1,368.5,113.383h0V56.69H340.155a56.693,56.693,0,0,0-56.69,56.693h28.346a28.346,28.346,0,0,1,28.347-28.346v28.347h0v0a56.692,56.692,0,0,0,56.692,56.69h0a56.693,56.693,0,0,0,56.69-56.693Z"/><path class="a" d="M56.693,56.693V85.039A28.345,28.345,0,0,1,28.347,56.693h0A28.348,28.348,0,0,1,56.693,28.346h0A28.347,28.347,0,0,1,85.039,56.693h28.347v0A56.693,56.693,0,0,0,56.693,0h0A56.693,56.693,0,0,0,0,56.693v0a56.693,56.693,0,0,0,56.693,56.691V85.039a28.347,28.347,0,0,1,28.346,28.347h0a28.346,28.346,0,0,1-28.346,28.346h0a28.345,28.345,0,0,1-28.346-28.346H0v0a56.693,56.693,0,0,0,56.693,56.691h0a56.693,56.693,0,0,0,56.691-56.693v0A56.693,56.693,0,0,0,56.693,56.693Z"/></svg>